<svg width="30" height="30" viewBox="0 0 30 30" fill="none" xmlns="http://www.w3.org/2000/svg">
	<g opacity="0.5">
		<path fill-rule="evenodd" clip-rule="evenodd" d="M15 0C6.71573 0 0 6.71573 0 15C0 23.2843 6.71573 30 15 30C23.2843 30 30 23.2843 30 15C30 6.71573 23.2843 0 15 0ZM15 1.8C7.70984 1.8 1.8 7.70984 1.8 15C1.8 22.2902 7.70984 28.2 15 28.2C22.2902 28.2 28.2 22.2902 28.2 15C28.2 7.70984 22.2902 1.8 15 1.8ZM21.5708 20.7058C21.5821 20.6445 21.5904 20.5823 21.6 20.5208V9.47921C21.5908 9.41872 21.5828 9.35804 21.5715 9.29775C21.456 8.67927 20.9681 8.1993 20.3689 8.1136C20.3441 8.11025 20.3197 8.10453 20.2952 8.1H9.70475C9.64086 8.11202 9.5766 8.12108 9.51365 8.13606C8.92884 8.27536 8.49612 8.76774 8.41282 9.3872C8.40942 9.41301 8.40434 9.43862 8.4 9.46443V20.5362C8.41206 20.6063 8.42167 20.677 8.43675 20.7468C8.56604 21.3446 9.05417 21.808 9.63483 21.886C9.66291 21.8896 9.69118 21.8953 9.71926 21.9H20.2807C20.3493 21.8878 20.4181 21.8777 20.486 21.8624C21.025 21.7428 21.4654 21.2727 21.5708 20.7058ZM9.8282 19.8594C9.8282 20.1531 10.0715 20.4057 10.3525 20.4057C13.4501 20.4059 16.5476 20.4059 19.6452 20.4057C19.9289 20.4057 20.1709 20.1535 20.1709 19.8576C20.171 17.8177 20.1709 15.7781 20.1709 13.7384V13.6961H18.9108C19.0887 14.2905 19.1433 14.8952 19.0736 15.5115C19.0035 16.128 18.8135 16.7018 18.5041 17.2316C18.1944 17.762 17.793 18.2013 17.3015 18.5511C16.0274 19.4582 14.3501 19.538 12.9982 18.7448C12.3148 18.3442 11.7783 17.7856 11.4042 17.0659C10.8461 15.9919 10.757 14.8646 11.0843 13.6951C10.6663 13.6955 10.25 13.6955 9.82801 13.6955V13.7327C9.82801 15.7749 9.82782 17.8171 9.8282 19.8594ZM14.9387 17.7949C16.4332 17.8284 17.642 16.58 17.6735 15.0617C17.7057 13.4959 16.4976 12.2026 15.0001 12.2035C13.5361 12.2026 12.3459 13.434 12.3254 14.9576C12.3043 16.5223 13.5024 17.7626 14.9387 17.7949ZM20.1707 11.089C20.1709 10.6533 20.1709 10.2175 20.1707 9.78185C20.1707 9.46936 19.9341 9.22071 19.6356 9.22051C19.22 9.22031 18.8045 9.22012 18.3887 9.22051C18.0909 9.22091 17.8537 9.47015 17.8535 9.78264C17.8533 10.2145 17.8522 10.6464 17.855 11.0785C17.8554 11.1429 17.867 11.2099 17.8866 11.271C17.9613 11.5009 18.1628 11.642 18.4095 11.6432C18.61 11.6436 18.8105 11.643 19.0112 11.643C19.2283 11.6404 19.4462 11.6448 19.6635 11.6393C19.943 11.632 20.1707 11.3815 20.1707 11.089Z" fill="url(#paint0_linear)"/>
	</g>
	<defs>
		<linearGradient id="paint0_linear" x1="-2.75485e-07" y1="29.25" x2="34.9072" y2="21.1514" gradientUnits="userSpaceOnUse">
			<stop stop-color="#D100FF"/>
			<stop offset="1" stop-color="#8D06FF"/>
		</linearGradient>
	</defs>
</svg>
