<svg width="20" height="20" viewBox="0 0 20 20" fill="none" xmlns="http://www.w3.org/2000/svg">
	<g opacity="0.6">
		<path d="M9.9996 5.99411C7.78281 5.99411 5.99374 7.78317 5.99374 9.99997C5.99374 12.2168 7.78281 14.0058 9.9996 14.0058C12.2164 14.0058 14.0055 12.2168 14.0055 9.99997C14.0055 7.78317 12.2164 5.99411 9.9996 5.99411ZM9.9996 12.6035C8.56601 12.6035 7.39609 11.4336 7.39609 9.99997C7.39609 8.56638 8.56601 7.39645 9.9996 7.39645C11.4332 7.39645 12.6031 8.56638 12.6031 9.99997C12.6031 11.4336 11.4332 12.6035 9.9996 12.6035ZM14.1695 4.89645C13.6519 4.89645 13.234 5.31442 13.234 5.832C13.234 6.34958 13.6519 6.76755 14.1695 6.76755C14.6871 6.76755 15.1051 6.35153 15.1051 5.832C15.1052 5.7091 15.0811 5.58738 15.0342 5.4738C14.9872 5.36023 14.9183 5.25703 14.8314 5.17013C14.7445 5.08322 14.6413 5.01432 14.5277 4.96736C14.4142 4.92039 14.2924 4.8963 14.1695 4.89645ZM17.8082 9.99997C17.8082 8.92185 17.818 7.85349 17.7574 6.77731C17.6969 5.52731 17.4117 4.41794 16.4977 3.50388C15.5816 2.58786 14.4742 2.30466 13.2242 2.24411C12.1461 2.18356 11.0777 2.19333 10.0016 2.19333C8.92343 2.19333 7.85507 2.18356 6.7789 2.24411C5.5289 2.30466 4.41953 2.58981 3.50546 3.50388C2.58945 4.41989 2.30624 5.52731 2.2457 6.77731C2.18515 7.85544 2.19492 8.9238 2.19492 9.99997C2.19492 11.0761 2.18515 12.1465 2.2457 13.2226C2.30624 14.4726 2.5914 15.582 3.50546 16.4961C4.42148 17.4121 5.5289 17.6953 6.7789 17.7558C7.85703 17.8164 8.92538 17.8066 10.0016 17.8066C11.0797 17.8066 12.148 17.8164 13.2242 17.7558C14.4742 17.6953 15.5836 17.4101 16.4977 16.4961C17.4137 15.58 17.6969 14.4726 17.7574 13.2226C17.8199 12.1465 17.8082 11.0781 17.8082 9.99997ZM16.0894 14.6054C15.9469 14.9609 15.775 15.2265 15.4996 15.5C15.2242 15.7754 14.9605 15.9472 14.6051 16.0898C13.5777 16.498 11.1383 16.4062 9.9996 16.4062C8.86093 16.4062 6.41953 16.498 5.39218 16.0918C5.03671 15.9492 4.77109 15.7773 4.49765 15.5019C4.22226 15.2265 4.05039 14.9629 3.90781 14.6074C3.50156 13.5781 3.59335 11.1386 3.59335 9.99997C3.59335 8.8613 3.50156 6.41989 3.90781 5.39255C4.05039 5.03708 4.22226 4.77146 4.49765 4.49802C4.77304 4.22458 5.03671 4.05075 5.39218 3.90817C6.41953 3.50192 8.86093 3.59372 9.9996 3.59372C11.1383 3.59372 13.5797 3.50192 14.607 3.90817C14.9625 4.05075 15.2281 4.22263 15.5016 4.49802C15.7769 4.77341 15.9488 5.03708 16.0914 5.39255C16.4977 6.41989 16.4059 8.8613 16.4059 9.99997C16.4059 11.1386 16.4977 13.5781 16.0894 14.6054Z" fill="black"/>
	</g>
</svg>
