<svg width="30" height="30" viewBox="0 0 30 30" fill="none" xmlns="http://www.w3.org/2000/svg">
	<g opacity="0.5">
		<path fill-rule="evenodd" clip-rule="evenodd" d="M15 30C23.2843 30 30 23.2843 30 15C30 6.71573 23.2843 0 15 0C6.71573 0 0 6.71573 0 15C0 23.2843 6.71573 30 15 30ZM15 28.2C22.2902 28.2 28.2 22.2902 28.2 15C28.2 7.70984 22.2902 1.8 15 1.8C7.70984 1.8 1.8 7.70984 1.8 15C1.8 22.2902 7.70984 28.2 15 28.2ZM14.8094 12.3326L14.838 12.8257L14.3611 12.7653C12.6252 12.5338 11.1087 11.7489 9.82112 10.4307L9.19163 9.7766L9.02949 10.2596C8.68613 11.3364 8.9055 12.4735 9.62083 13.2382C10.0023 13.6609 9.9165 13.7213 9.2584 13.4697C9.02949 13.3892 8.8292 13.3288 8.81012 13.359C8.74336 13.4294 8.97226 14.3452 9.15348 14.7074C9.40146 15.2106 9.90696 15.7037 10.4601 15.9955L10.9275 16.2269L10.3743 16.237C9.8402 16.237 9.82112 16.247 9.87835 16.4584C10.0691 17.1125 10.8226 17.8068 11.6619 18.1087L12.2532 18.32L11.7382 18.642C10.9752 19.1049 10.0786 19.3665 9.18209 19.3867C8.7529 19.3967 8.4 19.437 8.4 19.4672C8.4 19.5678 9.5636 20.1313 10.2408 20.3527C12.2723 21.0068 14.6854 20.725 16.4975 19.6081C17.7851 18.8131 19.0727 17.2332 19.6736 15.7037C19.9979 14.8886 20.3222 13.3992 20.3222 12.6848C20.3222 12.2219 20.3508 12.1615 20.8849 11.6081C21.1996 11.286 21.4953 10.9338 21.5525 10.8332C21.6479 10.642 21.6384 10.642 21.1519 10.8131C20.3412 11.115 20.2268 11.0747 20.6274 10.6219C20.923 10.2999 21.2759 9.71622 21.2759 9.54516C21.2759 9.51497 21.1329 9.56528 20.9707 9.65585C20.799 9.75648 20.4175 9.90742 20.1314 9.99799L19.6164 10.1691L19.149 9.83698C18.8915 9.65585 18.5291 9.45459 18.3383 9.39421C17.8519 9.25333 17.1079 9.27346 16.6692 9.43446C15.477 9.88729 14.7235 11.0546 14.8094 12.3326C14.8094 12.3326 14.7235 11.0546 14.8094 12.3326Z" fill="url(#paint0_linear)"/>
	</g>
	<defs>
		<linearGradient id="paint0_linear" x1="-2.75485e-07" y1="29.25" x2="34.9072" y2="21.1514" gradientUnits="userSpaceOnUse">
			<stop stop-color="#D100FF"/>
			<stop offset="1" stop-color="#8D06FF"/>
		</linearGradient>
	</defs>
</svg>
